<svg width="14" height="12" viewBox="0 0 14 12" fill="none" xmlns="http://www.w3.org/2000/svg">
<path d="M5 5.33333C5.52741 5.33333 6.04298 5.17694 6.48152 4.88392C6.92005 4.5909 7.26184 4.17443 7.46367 3.68716C7.66551 3.19989 7.71832 2.66371 7.61542 2.14643C7.51253 1.62914 7.25855 1.15399 6.88561 0.78105C6.51267 0.40811 6.03752 0.154134 5.52024 0.0512404C5.00295 -0.0516535 4.46678 0.00115542 3.97951 0.202989C3.49224 0.404823 3.07576 0.746616 2.78274 1.18515C2.48973 1.62368 2.33333 2.13925 2.33333 2.66667C2.33333 3.37391 2.61428 4.05219 3.11438 4.55229C3.61447 5.05238 4.29275 5.33333 5 5.33333ZM10.3333 6.66667C10.7289 6.66667 11.1156 6.54937 11.4445 6.32961C11.7734 6.10984 12.0297 5.79749 12.1811 5.43203C12.3325 5.06658 12.3721 4.66445 12.2949 4.27649C12.2177 3.88853 12.0272 3.53216 11.7475 3.25245C11.4678 2.97275 11.1115 2.78227 10.7235 2.7051C10.3355 2.62793 9.93341 2.66753 9.56796 2.81891C9.20251 2.97028 8.89015 3.22663 8.67039 3.55553C8.45063 3.88443 8.33333 4.2711 8.33333 4.66667C8.33333 5.1971 8.54404 5.70581 8.91912 6.08088C9.29419 6.45595 9.8029 6.66667 10.3333 6.66667ZM13 11.3333C13.1768 11.3333 13.3464 11.2631 13.4714 11.1381C13.5964 11.013 13.6667 10.8435 13.6667 10.6667C13.6661 10.0436 13.491 9.43315 13.1611 8.90459C12.8312 8.37602 12.3597 7.95051 11.8002 7.67631C11.2407 7.40212 10.6156 7.29023 9.99572 7.35333C9.37586 7.41644 8.78609 7.65202 8.29333 8.03333C7.64034 7.3829 6.80937 6.9404 5.90521 6.76162C5.00106 6.58284 4.06421 6.67579 3.21281 7.02876C2.36142 7.38172 1.6336 7.97889 1.12116 8.74496C0.608708 9.51102 0.334575 10.4117 0.333328 11.3333C0.333328 11.5101 0.403566 11.6797 0.52859 11.8047C0.653615 11.9298 0.823184 12 0.999995 12H9C9.17681 12 9.34638 11.9298 9.4714 11.8047C9.59642 11.6797 9.66666 11.5101 9.66666 11.3333" fill="#FFFA7E"/>
</svg>